<?xml version="1.0" standalone="no"?>
<!DOCTYPE svg PUBLIC "-//W3C//DTD SVG 20010904//EN"
 "http://www.w3.org/TR/2001/REC-SVG-20010904/DTD/svg10.dtd">
<svg version="1.0" xmlns="http://www.w3.org/2000/svg"
 width="987.000000pt" height="171.000000pt" viewBox="0 0 987.000000 171.000000"
 preserveAspectRatio="xMidYMid meet">
<metadata>
Created by potrace 1.16, written by Peter Selinger 2001-2019
</metadata>
<g transform="translate(0.000000,171.000000) scale(0.100000,-0.100000)"
fill="#000000" stroke="none">
<path d="M495 1483 c-9 -10 -48 -110 -86 -223 -39 -113 -92 -268 -119 -345
-59 -172 -74 -246 -68 -329 6 -70 44 -158 89 -207 53 -57 170 -62 329 -13 77
24 102 26 270 28 150 2 191 6 217 19 34 18 43 45 31 87 -4 14 -10 37 -13 51
-3 19 -16 32 -42 44 -21 9 -62 29 -92 43 -52 26 -62 27 -191 26 -93 -1 -154
-7 -192 -18 -31 -9 -70 -16 -87 -16 -29 0 -31 3 -31 35 0 20 11 66 24 103 13
37 34 96 47 132 12 36 32 90 44 120 70 170 115 299 115 325 0 35 -52 105 -78
105 -15 1 -90 25 -134 44 -10 5 -22 1 -33 -11z"/>
<path d="M4556 1416 c-64 -87 -114 -123 -169 -125 -26 0 -44 -7 -55 -21 -35
-43 -303 -602 -342 -713 -9 -26 -20 -50 -23 -54 -4 -3 -1 -13 7 -22 7 -9 19
-32 25 -51 6 -19 27 -48 47 -64 31 -25 41 -27 80 -21 24 3 44 10 44 15 0 5 13
16 30 25 21 11 32 26 40 58 24 92 43 147 56 158 8 6 14 19 14 29 0 10 7 20 15
24 8 3 15 15 15 26 0 11 5 20 10 20 6 0 10 -7 10 -16 0 -8 10 -33 23 -54 l22
-40 65 0 c36 0 101 7 146 17 96 20 119 15 110 -25 -9 -33 -29 -49 -78 -63 -21
-5 -38 -13 -38 -17 0 -5 16 -24 35 -42 25 -24 35 -42 33 -59 -2 -19 6 -28 42
-47 66 -34 116 -19 192 56 71 72 85 113 72 212 l-10 70 43 30 c24 16 56 47 70
69 l27 40 -30 25 c-16 13 -39 27 -52 30 -12 3 -27 14 -32 24 -8 14 -18 17 -49
13 -37 -5 -39 -4 -49 28 -18 55 -59 257 -72 353 -8 60 -18 94 -31 107 -10 10
-51 28 -91 39 -40 12 -78 26 -85 32 -8 6 -28 -13 -67 -66z m67 -448 c14 -57
23 -106 19 -110 -7 -7 -214 -28 -220 -23 -9 9 153 235 168 235 4 0 19 -46 33
-102z"/>
<path d="M5539 1277 c-31 -17 -68 -54 -128 -131 l-84 -107 -42 7 -42 6 -17
-64 c-44 -174 -59 -240 -71 -318 -7 -47 -18 -105 -24 -129 -11 -37 -10 -53 5
-102 10 -33 21 -59 26 -59 4 0 8 -6 8 -13 0 -6 13 -18 28 -25 45 -19 92 5 120
62 12 26 22 52 22 59 0 6 4 18 9 26 7 11 19 6 57 -26 58 -48 86 -63 205 -109
180 -69 276 -78 323 -27 19 21 23 35 21 77 -3 78 -23 102 -93 110 -93 10 -212
44 -276 79 -33 18 -61 38 -63 43 -2 5 45 27 104 48 236 82 295 173 224 342
-52 126 -86 169 -190 244 -49 36 -65 37 -122 7z m74 -271 c34 -31 46 -75 24
-91 -23 -16 -177 -68 -184 -62 -13 14 10 57 63 115 30 34 59 62 63 62 5 0 20
-11 34 -24z"/>
<path d="M6411 1289 c-46 -18 -82 -52 -143 -132 -89 -116 -91 -118 -136 -111
l-38 6 -17 -59 c-25 -87 -65 -262 -72 -313 -3 -25 -13 -76 -22 -113 -14 -63
-14 -72 2 -125 23 -73 33 -89 66 -102 19 -8 33 -8 55 2 38 17 50 32 75 101 12
31 24 57 26 57 2 0 25 -17 51 -39 56 -46 85 -61 203 -107 239 -92 347 -78 344
46 -1 62 -29 104 -71 108 -40 4 -159 30 -219 50 -54 16 -145 68 -145 82 0 5
37 21 83 36 125 41 162 59 208 101 48 43 69 86 69 140 0 55 -77 237 -108 257
-8 4 -24 19 -35 33 -32 36 -114 93 -135 92 -9 0 -28 -5 -41 -10z m58 -294 c44
-50 41 -72 -13 -94 -65 -29 -155 -55 -162 -49 -10 11 28 71 79 125 27 29 53
53 57 53 5 0 22 -16 39 -35z"/>
<path d="M8870 1293 c-19 -2 -82 -10 -139 -18 -91 -12 -107 -12 -125 1 -27 18
-32 18 -55 -5 -16 -16 -44 -22 -133 -30 -62 -6 -152 -11 -200 -11 -76 0 -90 3
-115 23 -36 31 -81 32 -242 8 -135 -21 -360 -75 -401 -96 -55 -28 -63 -48 -51
-116 6 -34 20 -77 31 -96 l20 -34 -42 -92 c-23 -51 -47 -99 -53 -107 -22 -31
-45 -92 -45 -122 0 -117 40 -211 104 -246 48 -25 281 -23 435 4 130 23 184 52
217 115 11 21 11 32 1 53 -7 14 -16 26 -22 26 -5 0 -24 14 -41 31 l-32 31 -69
-17 c-70 -18 -358 -43 -369 -32 -4 3 9 34 28 69 l35 63 129 5 c123 5 132 7
191 39 83 45 100 64 85 96 -6 14 -18 25 -25 25 -15 0 -67 51 -67 67 0 6 -42 8
-125 5 l-125 -5 0 25 c0 29 32 47 90 50 19 1 47 8 63 15 15 8 73 23 130 34 56
12 119 30 140 41 22 11 40 18 41 16 1 -2 9 -20 19 -41 17 -38 70 -72 99 -63 7
3 59 7 116 10 117 5 115 9 66 -84 -28 -54 -99 -247 -113 -310 -16 -67 -13
-107 10 -181 20 -62 25 -70 72 -99 60 -37 104 -35 137 7 28 35 25 58 -10 90
-49 43 -38 101 58 303 19 41 56 129 83 195 l47 120 89 12 c97 12 233 17 233 7
0 -4 -17 -41 -39 -83 -49 -95 -192 -408 -221 -480 -11 -30 -17 -57 -12 -60 5
-3 15 -22 21 -41 18 -52 62 -83 106 -74 19 3 35 9 35 13 0 4 13 14 28 23 21
13 30 29 39 71 13 61 42 129 73 167 16 21 20 22 20 7 0 -10 10 -31 22 -47 20
-27 27 -30 77 -30 31 0 83 7 116 15 77 18 82 18 89 -1 10 -27 -20 -62 -59 -70
-19 -3 -35 -9 -35 -11 0 -3 14 -21 30 -40 18 -21 29 -41 26 -51 -7 -20 43 -52
79 -52 57 0 132 55 167 123 16 33 19 50 13 95 -4 30 -9 60 -11 66 -3 7 16 26
40 43 25 18 52 45 60 62 16 29 15 30 -18 50 -18 12 -38 21 -44 21 -5 0 -13 7
-16 16 -4 12 -15 15 -37 12 -22 -4 -33 0 -40 14 -13 24 -47 179 -64 292 -7 49
-19 95 -27 102 -10 11 -161 66 -164 61 0 -1 -22 -30 -48 -65 -46 -61 -109
-109 -105 -80 5 39 -5 64 -45 106 l-44 47 -74 1 c-40 1 -89 0 -108 -3z m420
-357 c0 -2 9 -40 21 -86 11 -45 18 -84 17 -86 -2 -2 -43 -7 -91 -12 -94 -9
-100 -5 -70 38 61 92 105 150 114 150 5 0 9 -2 9 -4z"/>
<path d="M1926 1268 c-9 -12 -16 -37 -16 -55 0 -18 -4 -33 -9 -33 -5 0 -12
-21 -16 -47 -12 -84 -36 -166 -67 -230 -56 -114 -209 -236 -325 -259 -29 -6
-34 -3 -43 20 -15 41 -12 150 7 227 l16 69 -28 71 c-15 39 -33 73 -41 76 -7 2
-22 20 -33 39 -28 47 -43 50 -79 16 -29 -28 -34 -40 -57 -173 -18 -101 -25
-180 -25 -265 0 -116 1 -124 25 -152 15 -18 21 -33 15 -37 -16 -10 46 -121 84
-150 29 -22 49 -28 114 -32 78 -6 80 -5 176 40 115 55 161 90 212 159 43 58
81 98 93 98 11 0 48 58 94 147 23 44 43 103 54 157 l17 86 -29 93 c-22 73 -35
99 -63 125 -42 38 -55 40 -76 10z"/>
<path d="M2312 1259 c-23 -17 -42 -38 -42 -46 0 -8 -7 -29 -15 -46 -25 -56
-43 -117 -39 -135 3 -9 -9 -64 -27 -122 -23 -77 -34 -138 -40 -229 -9 -119 -8
-128 17 -210 14 -47 33 -99 41 -115 14 -27 17 -28 71 -24 45 4 60 10 79 33 24
27 24 31 18 144 -9 143 8 252 65 419 26 76 36 120 30 128 -6 6 -13 33 -16 60
-4 27 -12 56 -19 64 -12 15 -17 28 -29 83 -9 37 -40 36 -94 -4z"/>
<path d="M3174 1275 c-10 -8 -71 -46 -134 -85 -243 -146 -448 -361 -480 -504
-8 -36 10 -139 35 -199 23 -56 69 -102 126 -127 44 -18 65 -21 138 -18 117 6
212 23 361 65 178 49 270 81 312 109 20 13 42 25 48 26 6 2 23 -35 39 -82 43
-133 43 -133 109 -128 45 4 60 10 79 32 23 27 23 31 17 159 -7 151 9 248 69
419 19 54 30 101 25 106 -5 5 -11 33 -15 63 -3 30 -10 57 -15 60 -4 3 -16 30
-26 60 -21 65 -41 72 -96 32 -26 -20 -45 -46 -62 -88 -13 -33 -24 -68 -24 -77
0 -9 -5 -20 -11 -24 -6 -3 -8 -16 -5 -29 3 -12 -10 -78 -29 -146 -19 -67 -35
-136 -35 -152 l0 -30 -44 41 c-25 23 -75 57 -113 76 -37 19 -86 46 -108 59
l-39 25 -58 -39 c-38 -26 -58 -47 -58 -59 0 -11 4 -20 9 -20 5 0 9 -11 9 -25
0 -14 8 -37 18 -52 10 -16 17 -32 16 -37 -2 -4 2 -14 8 -21 13 -16 -12 -24
-170 -56 -58 -12 -112 -24 -120 -27 -8 -3 -52 -7 -98 -9 -98 -4 -109 7 -68 66
49 71 167 190 246 250 44 33 137 90 207 127 70 37 130 69 132 71 9 7 0 97 -11
111 -20 24 -128 92 -147 92 -9 0 -26 -7 -37 -15z"/>
<path d="M7065 1260 c-30 -24 -43 -45 -62 -103 -13 -39 -27 -79 -30 -87 -3 -8
-6 -33 -8 -55 -1 -22 -15 -78 -29 -125 -19 -58 -30 -124 -37 -205 -8 -108 -7
-127 12 -195 12 -41 31 -95 42 -119 l20 -43 55 4 c45 4 60 10 80 33 23 28 24
31 17 144 -8 141 8 239 65 414 22 68 36 126 31 131 -5 6 -11 32 -14 59 -4 26
-13 57 -21 70 -8 12 -19 41 -26 65 -14 52 -40 56 -95 12z"/>
</g>
</svg>
